<?xml version="1.0" encoding="utf-8"?>
<!-- Generator: Adobe Illustrator 23.0.0, SVG Export Plug-In . SVG Version: 6.00 Build 0)  -->
<svg version="1.1" id="Capa_1" xmlns="http://www.w3.org/2000/svg" xmlns:xlink="http://www.w3.org/1999/xlink" x="0px" y="0px"
	 viewBox="0 0 595.28 595.28" style="enable-background:new 0 0 595.28 595.28;" xml:space="preserve">
<style type="text/css">
	.st0{fill:#D1C019;}
	.st1{fill:#001D52;}
	.st2{fill:#FFFFFF;}
	.st3{fill:#0C6496;}
	.st4{fill:#D4C434;}
	.st5{fill:#173B78;}
	.st6{fill:#0082AE;}
	.st7{font-family:'NewsGothicBT-Bold';}
	.st8{font-size:22.866px;}
	.st9{fill:#CCB031;}
</style>
<rect y="0.7" class="st0" width="595.28" height="595.28"/>
<rect x="716.9" y="-170.45" class="st0" width="294" height="294"/>
<g>
	<rect x="170.08" y="170.08" class="st1" width="255.12" height="255.12"/>
	<g>
		<path class="st2" d="M335,295.1c0,4.48-0.82,8.67-2.47,12.58c-1.64,3.91-4.04,7.41-7.18,10.5c-3.17,3.06-6.8,5.42-10.88,7.08
			c-4.08,1.66-8.32,2.49-12.71,2.49c-4.45,0-8.71-0.83-12.77-2.49c-4.07-1.66-7.65-4.02-10.73-7.08c-3.2-3.09-5.63-6.6-7.29-10.54
			c-1.66-3.94-2.49-8.12-2.49-12.54c0-4.45,0.83-8.64,2.49-12.56c1.66-3.93,4.09-7.43,7.29-10.52c3.09-3.06,6.67-5.42,10.73-7.08
			c4.07-1.66,8.33-2.49,12.77-2.49c4.42,0,8.68,0.83,12.77,2.49c4.1,1.66,7.7,4.02,10.82,7.08c3.12,3.06,5.51,6.56,7.16,10.5
			C334.17,286.46,335,290.65,335,295.1z M301.75,313.38c4.7,0,8.59-1.73,11.67-5.19c3.07-3.46,4.61-7.82,4.61-13.09
			c0-5.21-1.56-9.57-4.68-13.05c-3.12-3.49-6.99-5.23-11.61-5.23c-4.7,0-8.59,1.74-11.67,5.21c-3.08,3.47-4.61,7.83-4.61,13.07
			c0,5.33,1.52,9.71,4.55,13.14C293.05,311.67,296.96,313.38,301.75,313.38z"/>
		<path class="st2" d="M263.5,290.02h-0.07c0,0,0,0,0-0.01H230.1v13.05h16.88c-0.48,3.51-2.16,6.33-5.04,8.44
			c-2.88,2.11-6.47,3.17-10.78,3.17c-5.07,0-9.07-1.7-11.99-5.1c-2.92-3.4-4.38-8.06-4.38-13.99c0-5.87,1.46-10.49,4.38-13.88
			c2.92-3.39,6.91-5.08,11.99-5.08c2.72,0,5.18,0.59,7.38,1.76c2.2,1.18,4.17,2.97,5.93,5.38l14.71-7.06
			c-3.2-4.76-7.15-8.35-11.84-10.76c-4.69-2.41-10.08-3.61-16.18-3.61c-4.68,0-9.03,0.78-13.07,2.34
			c-4.04,1.56-7.62,3.85-10.73,6.89c-3.15,3.12-5.51,6.63-7.1,10.52c-1.59,3.9-2.38,8.17-2.38,12.82c0,4.45,0.81,8.71,2.44,12.77
			c1.63,4.07,3.92,7.59,6.87,10.56c3.09,3.12,6.6,5.43,10.52,6.95c3.93,1.52,8.41,2.27,13.46,2.27c7.68,0,14.07-1.66,19.17-4.97
			v5.38h13.17V290.02z"/>
		<path class="st2" d="M339.77,290.02h0.07c0,0,0,0,0-0.01h33.33v13.05H356.3c0.48,3.51,2.16,6.33,5.04,8.44
			c2.88,2.11,6.47,3.17,10.78,3.17c5.07,0,9.07-1.7,11.99-5.1c2.92-3.4,4.38-8.06,4.38-13.99c0-5.87-1.46-10.49-4.38-13.88
			c-2.92-3.39-6.91-5.08-11.99-5.08c-2.72,0-5.18,0.59-7.38,1.76c-2.2,1.18-4.17,2.97-5.93,5.38l-14.71-7.06
			c3.2-4.76,7.15-8.35,11.84-10.76c4.69-2.41,10.08-3.61,16.18-3.61c4.68,0,9.03,0.78,13.07,2.34c4.04,1.56,7.62,3.85,10.73,6.89
			c3.15,3.12,5.51,6.63,7.1,10.52c1.59,3.9,2.38,8.17,2.38,12.82c0,4.45-0.81,8.71-2.44,12.77c-1.63,4.07-3.92,7.59-6.87,10.56
			c-3.09,3.12-6.6,5.43-10.52,6.95c-3.93,1.52-8.41,2.27-13.46,2.27c-7.68,0-14.07-1.66-19.17-4.97v5.38h-13.17V290.02z"/>
	</g>
	<g>
		<g>
			<circle class="st3" cx="377.76" cy="147.72" r="8.08"/>
			<circle class="st3" cx="400.83" cy="147.72" r="8.08"/>
			<circle class="st3" cx="423.91" cy="147.72" r="8.08"/>
			
				<ellipse transform="matrix(0.7071 -0.7071 0.7071 0.7071 26.4924 359.3989)" class="st3" cx="447.08" cy="147.72" rx="7.99" ry="7.99"/>
			<circle class="st3" cx="469.62" cy="147.47" r="8.08"/>
			<circle class="st3" cx="400.83" cy="125.84" r="8.08"/>
			<circle class="st3" cx="423.91" cy="125.76" r="8.08"/>
			<circle class="st3" cx="447.08" cy="125.84" r="8.08"/>
			<circle class="st3" cx="469.62" cy="125.84" r="8.08"/>
			<g>
				<circle class="st3" cx="469.49" cy="192.37" r="8.18"/>
				<circle class="st3" cx="469.49" cy="169.02" r="8.18"/>
				
					<ellipse transform="matrix(0.1602 -0.9871 0.9871 0.1602 162.0355 623.2174)" class="st3" cx="447.27" cy="216.38" rx="8.18" ry="8.18"/>
				
					<ellipse transform="matrix(0.1602 -0.9871 0.9871 0.1602 185.0885 603.6038)" class="st3" cx="447.27" cy="193.03" rx="8.18" ry="8.18"/>
				
					<ellipse transform="matrix(0.1602 -0.9871 0.9871 0.1602 208.1416 583.9902)" class="st3" cx="447.27" cy="169.67" rx="8.18" ry="8.18"/>
			</g>
		</g>
	</g>
</g>
<g>
	<rect x="785.57" y="-94.56" class="st1" width="154.14" height="154.14"/>
	<g>
		<path class="st2" d="M885.21-19.03c0,2.71-0.5,5.24-1.49,7.6c-0.99,2.36-2.44,4.48-4.34,6.34c-1.92,1.85-4.11,3.27-6.58,4.28
			c-2.47,1-5.03,1.5-7.68,1.5c-2.69,0-5.26-0.5-7.72-1.5c-2.46-1-4.62-2.43-6.49-4.28c-1.94-1.87-3.4-3.99-4.41-6.37
			c-1-2.38-1.5-4.91-1.5-7.58c0-2.69,0.5-5.22,1.5-7.59c1-2.37,2.47-4.49,4.41-6.36c1.87-1.85,4.03-3.27,6.49-4.28
			c2.46-1,5.03-1.5,7.72-1.5c2.67,0,5.24,0.5,7.72,1.5c2.47,1,4.65,2.43,6.54,4.28c1.88,1.85,3.33,3.96,4.33,6.34
			C884.71-24.25,885.21-21.72,885.21-19.03z M865.13-7.98c2.84,0,5.19-1.04,7.05-3.13c1.86-2.09,2.79-4.73,2.79-7.91
			c0-3.15-0.94-5.78-2.83-7.89c-1.88-2.11-4.22-3.16-7.01-3.16c-2.84,0-5.19,1.05-7.05,3.15c-1.86,2.1-2.79,4.73-2.79,7.9
			c0,3.22,0.92,5.87,2.75,7.94C859.87-9.02,862.23-7.98,865.13-7.98z"/>
		<path class="st2" d="M842.02-22.1h-0.04c0,0,0,0,0,0h-20.14v7.89h10.2c-0.29,2.12-1.31,3.82-3.04,5.1
			c-1.74,1.28-3.91,1.91-6.51,1.91c-3.07,0-5.48-1.03-7.24-3.08c-1.76-2.05-2.65-4.87-2.65-8.45c0-3.54,0.88-6.34,2.65-8.39
			c1.76-2.05,4.18-3.07,7.24-3.07c1.64,0,3.13,0.36,4.46,1.07c1.33,0.71,2.52,1.79,3.58,3.25l8.89-4.26
			c-1.94-2.88-4.32-5.04-7.15-6.5c-2.83-1.46-6.09-2.18-9.77-2.18c-2.83,0-5.46,0.47-7.9,1.41c-2.44,0.94-4.6,2.33-6.49,4.16
			c-1.9,1.88-3.33,4-4.29,6.36c-0.96,2.35-1.44,4.94-1.44,7.74c0,2.69,0.49,5.26,1.48,7.72c0.98,2.46,2.37,4.58,4.15,6.38
			c1.87,1.88,3.99,3.28,6.36,4.2c2.37,0.92,5.08,1.37,8.13,1.37c4.64,0,8.5-1,11.58-3v3.25h7.96V-22.1z"/>
		<path class="st2" d="M888.1-22.1h0.04c0,0,0,0,0,0h20.14v7.89h-10.2c0.29,2.12,1.31,3.82,3.04,5.1c1.74,1.28,3.91,1.91,6.51,1.91
			c3.07,0,5.48-1.03,7.24-3.08c1.76-2.05,2.65-4.87,2.65-8.45c0-3.54-0.88-6.34-2.65-8.39c-1.76-2.05-4.18-3.07-7.24-3.07
			c-1.64,0-3.13,0.36-4.46,1.07c-1.33,0.71-2.52,1.79-3.58,3.25l-8.89-4.26c1.94-2.88,4.32-5.04,7.15-6.5
			c2.83-1.46,6.09-2.18,9.77-2.18c2.83,0,5.46,0.47,7.9,1.41c2.44,0.94,4.6,2.33,6.49,4.16c1.9,1.88,3.33,4,4.29,6.36
			c0.96,2.35,1.44,4.94,1.44,7.74c0,2.69-0.49,5.26-1.48,7.72c-0.98,2.46-2.37,4.58-4.15,6.38c-1.87,1.88-3.99,3.28-6.36,4.2
			c-2.37,0.92-5.08,1.37-8.13,1.37c-4.64,0-8.5-1-11.58-3v3.25h-7.96V-22.1z"/>
	</g>
	<g>
		<g>
			<path class="st3" d="M915.93-108.07c0,2.7-2.19,4.88-4.88,4.88c-2.7,0-4.88-2.19-4.88-4.88c0-2.7,2.19-4.88,4.88-4.88
				C913.74-112.95,915.93-110.77,915.93-108.07z"/>
			<path class="st3" d="M929.87-108.07c0,2.7-2.19,4.88-4.88,4.88c-2.7,0-4.88-2.19-4.88-4.88c0-2.7,2.19-4.88,4.88-4.88
				C927.69-112.95,929.87-110.77,929.87-108.07z"/>
			<path class="st3" d="M943.81-108.07c0,2.7-2.19,4.88-4.88,4.88c-2.7,0-4.88-2.19-4.88-4.88c0-2.7,2.19-4.88,4.88-4.88
				C941.63-112.95,943.81-110.77,943.81-108.07z"/>
			<circle class="st3" cx="952.93" cy="-108.07" r="4.82"/>
			<path class="st3" d="M971.43-108.22c0,2.7-2.19,4.88-4.88,4.88c-2.7,0-4.88-2.19-4.88-4.88c0-2.7,2.19-4.88,4.88-4.88
				C969.24-113.1,971.43-110.92,971.43-108.22z"/>
			<path class="st3" d="M929.87-121.29c0,2.7-2.19,4.88-4.88,4.88c-2.7,0-4.88-2.19-4.88-4.88c0-2.7,2.19-4.88,4.88-4.88
				C927.69-126.17,929.87-123.99,929.87-121.29z"/>
			<path class="st3" d="M943.81-121.34c0,2.7-2.19,4.88-4.88,4.88c-2.7,0-4.88-2.19-4.88-4.88c0-2.7,2.19-4.88,4.88-4.88
				C941.63-126.22,943.81-124.04,943.81-121.34z"/>
			<path class="st3" d="M957.81-121.29c0,2.7-2.19,4.88-4.88,4.88c-2.7,0-4.88-2.19-4.88-4.88c0-2.7,2.19-4.88,4.88-4.88
				C955.63-126.17,957.81-123.99,957.81-121.29z"/>
			<path class="st3" d="M971.43-121.29c0,2.7-2.19,4.88-4.88,4.88c-2.7,0-4.88-2.19-4.88-4.88c0-2.7,2.19-4.88,4.88-4.88
				C969.24-126.17,971.43-123.99,971.43-121.29z"/>
			<g>
				<circle class="st3" cx="966.47" cy="-81.1" r="4.94"/>
				<circle class="st3" cx="966.47" cy="-95.21" r="4.94"/>
				<path class="st3" d="M953.05-71.53c2.73,0,4.94,2.21,4.94,4.94s-2.21,4.94-4.94,4.94c-2.73,0-4.94-2.21-4.94-4.94
					S950.32-71.53,953.05-71.53z"/>
				<path class="st3" d="M953.05-85.64c2.73,0,4.94,2.21,4.94,4.94c0,2.73-2.21,4.94-4.94,4.94c-2.73,0-4.94-2.21-4.94-4.94
					C948.11-83.43,950.32-85.64,953.05-85.64z"/>
				<path class="st3" d="M953.05-99.75c2.73,0,4.94,2.21,4.94,4.94c0,2.73-2.21,4.94-4.94,4.94c-2.73,0-4.94-2.21-4.94-4.94
					C948.11-97.54,950.32-99.75,953.05-99.75z"/>
			</g>
		</g>
	</g>
</g>
<rect x="716.9" y="137.1" class="st4" width="294" height="294"/>
<rect x="718.11" y="473.2" class="st5" width="294" height="282.98"/>
<g>
	<rect x="785.57" y="212.99" class="st5" width="154.14" height="154.14"/>
	<g>
		<path class="st2" d="M885.21,288.53c0,2.71-0.5,5.24-1.49,7.6c-0.99,2.36-2.44,4.48-4.34,6.34c-1.92,1.85-4.11,3.27-6.58,4.28
			c-2.47,1-5.03,1.5-7.68,1.5c-2.69,0-5.26-0.5-7.72-1.5c-2.46-1-4.62-2.43-6.49-4.28c-1.94-1.87-3.4-3.99-4.41-6.37
			c-1-2.38-1.5-4.91-1.5-7.58c0-2.69,0.5-5.22,1.5-7.59c1-2.37,2.47-4.49,4.41-6.36c1.87-1.85,4.03-3.27,6.49-4.28
			c2.46-1,5.03-1.5,7.72-1.5c2.67,0,5.24,0.5,7.72,1.5c2.47,1,4.65,2.43,6.54,4.28c1.88,1.85,3.33,3.96,4.33,6.34
			C884.71,283.3,885.21,285.84,885.21,288.53z M865.13,299.57c2.84,0,5.19-1.04,7.05-3.13c1.86-2.09,2.79-4.73,2.79-7.91
			c0-3.15-0.94-5.78-2.83-7.89c-1.88-2.11-4.22-3.16-7.01-3.16c-2.84,0-5.19,1.05-7.05,3.15c-1.86,2.1-2.79,4.73-2.79,7.9
			c0,3.22,0.92,5.87,2.75,7.94C859.87,298.53,862.23,299.57,865.13,299.57z"/>
		<path class="st2" d="M888.1,285.45h0.04c0,0,0,0,0,0h20.14v7.89h-10.2c0.29,2.12,1.31,3.82,3.04,5.1
			c1.74,1.28,3.91,1.91,6.51,1.91c3.07,0,5.48-1.03,7.24-3.08c1.76-2.05,2.65-4.87,2.65-8.45c0-3.54-0.88-6.34-2.65-8.39
			c-1.76-2.05-4.18-3.07-7.24-3.07c-1.64,0-3.13,0.36-4.46,1.07c-1.33,0.71-2.52,1.79-3.58,3.25l-8.89-4.26
			c1.94-2.88,4.32-5.04,7.15-6.5c2.83-1.46,6.09-2.18,9.77-2.18c2.83,0,5.46,0.47,7.9,1.41c2.44,0.94,4.6,2.33,6.49,4.16
			c1.9,1.88,3.33,4,4.29,6.36c0.96,2.35,1.44,4.94,1.44,7.74c0,2.69-0.49,5.26-1.48,7.72c-0.98,2.46-2.37,4.58-4.15,6.38
			c-1.87,1.88-3.99,3.28-6.36,4.2c-2.37,0.92-5.08,1.37-8.13,1.37c-4.64,0-8.5-1-11.58-3v3.25h-7.96V285.45z"/>
	</g>
	<g>
		<g>
			<path class="st6" d="M915.93,199.48c0,2.7-2.19,4.88-4.88,4.88c-2.7,0-4.88-2.19-4.88-4.88s2.19-4.88,4.88-4.88
				C913.74,194.6,915.93,196.78,915.93,199.48z"/>
			<path class="st6" d="M929.87,199.48c0,2.7-2.19,4.88-4.88,4.88c-2.7,0-4.88-2.19-4.88-4.88s2.19-4.88,4.88-4.88
				C927.69,194.6,929.87,196.78,929.87,199.48z"/>
			<circle class="st6" cx="938.93" cy="199.48" r="4.88"/>
			<circle class="st6" cx="952.93" cy="199.48" r="4.82"/>
			<path class="st6" d="M971.43,199.33c0,2.7-2.19,4.88-4.88,4.88c-2.7,0-4.88-2.19-4.88-4.88c0-2.7,2.19-4.88,4.88-4.88
				C969.24,194.45,971.43,196.63,971.43,199.33z"/>
			<path class="st6" d="M929.87,186.26c0,2.7-2.19,4.88-4.88,4.88c-2.7,0-4.88-2.19-4.88-4.88c0-2.7,2.19-4.88,4.88-4.88
				C927.69,181.38,929.87,183.56,929.87,186.26z"/>
			<path class="st6" d="M943.81,186.21c0,2.7-2.19,4.88-4.88,4.88c-2.7,0-4.88-2.19-4.88-4.88c0-2.7,2.19-4.88,4.88-4.88
				C941.63,181.33,943.81,183.52,943.81,186.21z"/>
			<path class="st6" d="M957.81,186.26c0,2.7-2.19,4.88-4.88,4.88c-2.7,0-4.88-2.19-4.88-4.88c0-2.7,2.19-4.88,4.88-4.88
				C955.63,181.38,957.81,183.56,957.81,186.26z"/>
			<path class="st6" d="M971.43,186.26c0,2.7-2.19,4.88-4.88,4.88c-2.7,0-4.88-2.19-4.88-4.88c0-2.7,2.19-4.88,4.88-4.88
				C969.24,181.38,971.43,183.56,971.43,186.26z"/>
			<g>
				<path class="st6" d="M966.47,221.52c2.73,0,4.94,2.21,4.94,4.94c0,2.73-2.21,4.94-4.94,4.94c-2.73,0-4.94-2.21-4.94-4.94
					C961.53,223.73,963.74,221.52,966.47,221.52z"/>
				<path class="st6" d="M966.47,207.41c2.73,0,4.94,2.21,4.94,4.94c0,2.73-2.21,4.94-4.94,4.94c-2.73,0-4.94-2.21-4.94-4.94
					C961.53,209.62,963.74,207.41,966.47,207.41z"/>
				<path class="st6" d="M953.05,236.03c2.73,0,4.94,2.21,4.94,4.94c0,2.73-2.21,4.94-4.94,4.94c-2.73,0-4.94-2.21-4.94-4.94
					C948.11,238.24,950.32,236.03,953.05,236.03z"/>
				<path class="st6" d="M953.05,221.92c2.73,0,4.94,2.21,4.94,4.94c0,2.73-2.21,4.94-4.94,4.94c-2.73,0-4.94-2.21-4.94-4.94
					C948.11,224.13,950.32,221.92,953.05,221.92z"/>
				<path class="st6" d="M953.05,207.8c2.73,0,4.94,2.21,4.94,4.94c0,2.73-2.21,4.94-4.94,4.94c-2.73,0-4.94-2.21-4.94-4.94
					C948.11,210.02,950.32,207.8,953.05,207.8z"/>
			</g>
		</g>
	</g>
</g>
<g>
	<text transform="matrix(1 0 0 1 211.5149 462.578)"><tspan x="0" y="0" class="st1 st7 st8">DIGITALIZACIÓN, </tspan><tspan x="-14.65" y="27.44" class="st1 st7 st8">ADMINISTRACIÓN Y </tspan><tspan x="38.7" y="54.88" class="st1 st7 st8">CUSTODIA</tspan></text>
</g>
<g>
	<path class="st2" d="M828.9,298.36l-2.19,1.1C827.51,299.18,828.24,298.82,828.9,298.36z"/>
	<path class="st2" d="M842.19,291.7l-13.29,6.67c-0.67,0.46-1.4,0.82-2.19,1.1l-13.12,6.58c0.31,0.14,0.61,0.29,0.93,0.42
		c0.33,0.13,0.68,0.22,1.01,0.33l26.65-13.37V291.7z"/>
	<polygon class="st2" points="822.01,285.93 823.46,285.2 822.01,285.2 	"/>
	<path class="st2" d="M822.65,300.1c-0.9,0-1.73-0.1-2.52-0.28l-9.29,4.66c0.5,0.35,1.01,0.66,1.54,0.95l10.67-5.35
		C822.91,300.09,822.79,300.1,822.65,300.1z"/>
	<path class="st2" d="M828.52,269.2l-25,12.54c-0.21,0.65-0.38,1.31-0.52,1.99l27.63-13.86
		C829.94,269.61,829.24,269.38,828.52,269.2z"/>
	<polygon class="st2" points="842.19,303.44 834.24,307.43 834.24,308.08 836.38,308.08 842.19,305.16 	"/>
	<path class="st2" d="M816.69,269.26l-6.89,3.46c-0.53,0.42-1.04,0.86-1.53,1.34c-0.66,0.65-1.24,1.34-1.78,2.05l15.1-7.57
		C819.89,268.6,818.25,268.83,816.69,269.26z"/>
	<polygon class="st2" points="842.19,308.08 842.19,306.37 838.79,308.08 	"/>
	<path class="st2" d="M824.03,268.52l-18.79,9.42c-0.45,0.75-0.85,1.52-1.19,2.32l22.78-11.43
		C825.93,268.67,825,268.57,824.03,268.52z"/>
	<path class="st2" d="M842.19,294.63l-25.09,12.59c0.82,0.19,1.68,0.34,2.57,0.43l22.52-11.3V294.63z"/>
	<path class="st2" d="M842.19,300.5l-13.05,6.54c1.88-0.5,3.58-1.24,5.09-2.22v1.39l7.96-3.99V300.5z"/>
	<path class="st2" d="M842.19,297.57l-20.4,10.23c0.29,0.01,0.56,0.03,0.86,0.03c0.97,0,1.89-0.05,2.79-0.14l16.75-8.4V297.57z"/>
	<path class="st2" d="M817,298.46l-8.39,4.21c0.41,0.39,0.82,0.76,1.25,1.1l8.77-4.4C818.05,299.12,817.51,298.82,817,298.46z"/>
	<polygon class="st2" points="822.01,288.86 829.31,285.2 825.88,285.2 822.01,287.14 	"/>
	<polygon class="st2" points="822.01,293.09 825.3,293.09 841.02,285.2 837.58,285.2 822.01,293.01 	"/>
	<path class="st2" d="M826.4,277.86l9.56-4.8c-0.43-0.37-0.88-0.73-1.34-1.05l-10.43,5.23C824.97,277.35,825.71,277.56,826.4,277.86
		z"/>
	<path class="st2" d="M815.41,280.18c1.63-1.89,3.82-2.9,6.56-3.04l11.61-5.82c-0.38-0.23-0.76-0.45-1.16-0.65
		c-0.16-0.08-0.34-0.16-0.5-0.24l-29.15,14.62c-0.08,0.59-0.14,1.2-0.18,1.81l12.49-6.27C815.2,280.46,815.3,280.31,815.41,280.18z"
		/>
	<polygon class="st2" points="831.15,293.09 842.19,287.55 842.19,285.82 827.71,293.09 	"/>
	<path class="st2" d="M830.69,281.43l6.74-3.23l2.12-1.06c-0.3-0.44-0.61-0.86-0.92-1.26l-8.86,4.44
		C830.09,280.66,830.4,281.02,830.69,281.43z"/>
	<path class="st2" d="M831.2,296l10.99-5.51v-1.72l-10.12,5.08C831.89,294.62,831.6,295.34,831.2,296z"/>
	<path class="st2" d="M828.97,279.5l8.95-4.49c-0.36-0.41-0.73-0.8-1.11-1.17l-9.23,4.63C828.07,278.77,828.53,279.1,828.97,279.5z"
		/>
	<polygon class="st2" points="822.01,291.8 835.16,285.2 831.73,285.2 822.01,290.08 	"/>
	<path class="st2" d="M813.03,291.65l-8.9,4.46c0.2,0.48,0.41,0.95,0.64,1.4l8.61-4.32C813.24,292.7,813.12,292.18,813.03,291.65z"
		/>
	<path class="st2" d="M814.02,282.34l-11.47,5.75c0,0.02,0,0.04,0,0.06c0,0.55,0.03,1.09,0.08,1.63l10.64-5.34
		C813.45,283.7,813.71,283,814.02,282.34z"/>
	<path class="st2" d="M813.74,294.22l-8.44,4.23c0.26,0.45,0.53,0.89,0.83,1.31l8.3-4.16C814.17,295.17,813.94,294.71,813.74,294.22
		z"/>
	<path class="st2" d="M812.97,285.8l-10.23,5.13c0.07,0.53,0.16,1.06,0.27,1.59l9.78-4.91C812.83,286.99,812.88,286.38,812.97,285.8
		z"/>
	<path class="st2" d="M812.77,288.84l-9.5,4.76c0.14,0.5,0.3,1,0.47,1.49l9.12-4.58C812.82,289.97,812.78,289.42,812.77,288.84z"/>
	<path class="st2" d="M815.41,297.02c-0.14-0.16-0.26-0.33-0.39-0.5l-8.26,4.14c0.33,0.42,0.68,0.81,1.04,1.2l8.27-4.15
		C815.84,297.49,815.62,297.26,815.41,297.02z"/>
	<path class="st2" d="M839.58,277.16c-0.01-0.01-0.02-0.02-0.02-0.03l-2.12,1.06L839.58,277.16z"/>
</g>
<path class="st9" d="M941.42,695.68h-120.6c-18.52,0-33.54-15.02-33.54-33.54v-120.6h154.14V695.68z"/>
<g>
	<g>
		<path class="st5" d="M886.92,617.08c0,2.71-0.5,5.24-1.49,7.6c-0.99,2.36-2.44,4.48-4.34,6.34c-1.92,1.85-4.11,3.27-6.58,4.28
			c-2.47,1-5.03,1.5-7.68,1.5c-2.69,0-5.26-0.5-7.72-1.5c-2.46-1-4.62-2.43-6.49-4.28c-1.94-1.87-3.4-3.99-4.41-6.37
			c-1-2.38-1.5-4.91-1.5-7.58c0-2.69,0.5-5.22,1.5-7.59c1-2.37,2.47-4.49,4.41-6.36c1.87-1.85,4.03-3.27,6.49-4.28
			c2.46-1,5.03-1.5,7.72-1.5c2.67,0,5.24,0.5,7.72,1.5c2.47,1,4.65,2.43,6.54,4.28c1.88,1.85,3.33,3.96,4.33,6.34
			C886.42,611.86,886.92,614.39,886.92,617.08z M866.84,628.12c2.84,0,5.19-1.04,7.05-3.13c1.86-2.09,2.79-4.73,2.79-7.91
			c0-3.15-0.94-5.78-2.83-7.89c-1.88-2.11-4.22-3.16-7.01-3.16c-2.84,0-5.19,1.05-7.05,3.15c-1.86,2.1-2.79,4.73-2.79,7.9
			c0,3.22,0.92,5.87,2.75,7.94C861.58,627.09,863.95,628.12,866.84,628.12z"/>
		<path class="st5" d="M889.81,614.01h0.04c0,0,0,0,0,0h20.14v7.89h-10.2c0.29,2.12,1.31,3.82,3.04,5.1
			c1.74,1.28,3.91,1.91,6.51,1.91c3.07,0,5.48-1.03,7.24-3.08c1.76-2.05,2.65-4.87,2.65-8.45c0-3.54-0.88-6.34-2.65-8.39
			c-1.76-2.05-4.18-3.07-7.24-3.07c-1.64,0-3.13,0.36-4.46,1.07c-1.33,0.71-2.52,1.79-3.58,3.25l-8.89-4.26
			c1.94-2.88,4.32-5.04,7.15-6.5c2.83-1.46,6.09-2.18,9.77-2.18c2.83,0,5.46,0.47,7.9,1.41c2.44,0.94,4.6,2.33,6.49,4.16
			c1.9,1.88,3.33,4,4.29,6.36c0.96,2.35,1.44,4.94,1.44,7.74c0,2.69-0.49,5.26-1.48,7.72c-0.98,2.46-2.37,4.58-4.15,6.38
			c-1.87,1.88-3.99,3.28-6.36,4.2c-2.37,0.92-5.08,1.37-8.13,1.37c-4.64,0-8.5-1-11.58-3v3.25h-7.96V614.01z"/>
	</g>
</g>
<g>
	<g>
		<path class="st9" d="M917.64,528.03c0,2.7-2.19,4.88-4.88,4.88c-2.7,0-4.88-2.19-4.88-4.88c0-2.7,2.19-4.88,4.88-4.88
			C915.46,523.15,917.64,525.34,917.64,528.03z"/>
		<path class="st9" d="M931.58,528.03c0,2.7-2.19,4.88-4.88,4.88c-2.7,0-4.88-2.19-4.88-4.88c0-2.7,2.19-4.88,4.88-4.88
			C929.4,523.15,931.58,525.34,931.58,528.03z"/>
		<path class="st9" d="M945.53,528.03c0,2.7-2.19,4.88-4.88,4.88s-4.88-2.19-4.88-4.88c0-2.7,2.19-4.88,4.88-4.88
			S945.53,525.34,945.53,528.03z"/>
		<path class="st9" d="M959.47,528.03c0,2.66-2.16,4.82-4.82,4.82s-4.82-2.16-4.82-4.82c0-2.66,2.16-4.82,4.82-4.82
			S959.47,525.37,959.47,528.03z"/>
		<circle class="st9" cx="968.26" cy="527.88" r="4.88"/>
		<path class="st9" d="M931.58,514.81c0,2.7-2.19,4.88-4.88,4.88c-2.7,0-4.88-2.19-4.88-4.88c0-2.7,2.19-4.88,4.88-4.88
			C929.4,509.93,931.58,512.12,931.58,514.81z"/>
		<circle class="st9" cx="940.64" cy="514.77" r="4.88"/>
		<path class="st9" d="M959.52,514.81c0,2.7-2.19,4.88-4.88,4.88c-2.7,0-4.88-2.19-4.88-4.88c0-2.7,2.19-4.88,4.88-4.88
			C957.34,509.93,959.52,512.12,959.52,514.81z"/>
		<circle class="st9" cx="968.26" cy="514.81" r="4.88"/>
		<g>
			<circle class="st9" cx="968.18" cy="555.01" r="4.94"/>
			<circle class="st9" cx="968.18" cy="540.9" r="4.94"/>
			<path class="st9" d="M954.76,564.58c2.73,0,4.94,2.21,4.94,4.94c0,2.73-2.21,4.94-4.94,4.94c-2.73,0-4.94-2.21-4.94-4.94
				C949.82,566.79,952.03,564.58,954.76,564.58z"/>
			<path class="st9" d="M954.76,550.47c2.73,0,4.94,2.21,4.94,4.94c0,2.73-2.21,4.94-4.94,4.94c-2.73,0-4.94-2.21-4.94-4.94
				C949.82,552.68,952.03,550.47,954.76,550.47z"/>
			<path class="st9" d="M954.76,536.36c2.73,0,4.94,2.21,4.94,4.94c0,2.73-2.21,4.94-4.94,4.94c-2.73,0-4.94-2.21-4.94-4.94
				C949.82,538.57,952.03,536.36,954.76,536.36z"/>
		</g>
	</g>
</g>
<g>
	<g>
		<path class="st5" d="M830.61,626.91l-2.19,1.1C829.22,627.73,829.95,627.37,830.61,626.91z"/>
		<path class="st5" d="M843.9,620.25l-13.29,6.67c-0.67,0.45-1.4,0.82-2.19,1.1l-13.12,6.58c0.31,0.14,0.61,0.29,0.93,0.42
			c0.33,0.13,0.68,0.22,1.01,0.33l26.65-13.37V620.25z"/>
		<polygon class="st5" points="823.72,614.48 825.17,613.76 823.72,613.76 		"/>
		<path class="st5" d="M824.37,628.65c-0.9,0-1.73-0.1-2.52-0.28l-9.29,4.66c0.5,0.35,1.01,0.66,1.54,0.95l10.67-5.35
			C824.63,628.64,824.5,628.65,824.37,628.65z"/>
		<path class="st5" d="M830.23,597.75l-25,12.54c-0.21,0.65-0.38,1.31-0.52,1.99l27.63-13.86
			C831.66,598.16,830.96,597.94,830.23,597.75z"/>
		<polygon class="st5" points="843.9,631.99 835.95,635.98 835.95,636.63 838.09,636.63 843.9,633.71 		"/>
		<path class="st5" d="M818.41,597.81l-6.89,3.46c-0.53,0.42-1.04,0.86-1.53,1.34c-0.66,0.65-1.24,1.34-1.78,2.05l15.1-7.57
			C821.6,597.15,819.96,597.39,818.41,597.81z"/>
		<polygon class="st5" points="843.9,636.63 843.9,634.93 840.51,636.63 		"/>
		<path class="st5" d="M825.74,597.07l-18.79,9.42c-0.45,0.75-0.85,1.52-1.19,2.32l22.78-11.43
			C827.64,597.23,826.71,597.12,825.74,597.07z"/>
		<path class="st5" d="M843.9,623.18l-25.09,12.59c0.82,0.19,1.68,0.34,2.57,0.43l22.52-11.3V623.18z"/>
		<path class="st5" d="M843.9,629.05l-13.05,6.54c1.88-0.5,3.58-1.24,5.09-2.22v1.39l7.96-3.99V629.05z"/>
		<path class="st5" d="M843.9,626.12l-20.4,10.23c0.29,0.01,0.56,0.03,0.86,0.03c0.97,0,1.89-0.05,2.79-0.14l16.75-8.4V626.12z"/>
		<path class="st5" d="M818.71,627.01l-8.39,4.21c0.41,0.39,0.82,0.76,1.25,1.1l8.77-4.4C819.77,627.68,819.22,627.37,818.71,627.01
			z"/>
		<polygon class="st5" points="823.72,617.42 831.02,613.76 827.59,613.76 823.72,615.69 		"/>
		<polygon class="st5" points="823.72,621.64 827.01,621.64 842.73,613.76 839.29,613.76 823.72,621.56 		"/>
		<path class="st5" d="M828.11,606.41l9.56-4.8c-0.43-0.37-0.88-0.73-1.34-1.05l-10.43,5.23
			C826.68,605.91,827.42,606.11,828.11,606.41z"/>
		<path class="st5" d="M817.12,608.73c1.63-1.89,3.82-2.9,6.56-3.04l11.61-5.82c-0.38-0.23-0.76-0.45-1.16-0.65
			c-0.16-0.08-0.34-0.16-0.5-0.24l-29.15,14.62c-0.08,0.59-0.14,1.2-0.18,1.81l12.49-6.27
			C816.91,609.01,817.01,608.87,817.12,608.73z"/>
		<polygon class="st5" points="832.86,621.64 843.9,616.1 843.9,614.38 829.42,621.64 		"/>
		<path class="st5" d="M832.41,609.98l6.74-3.23l2.12-1.06c-0.3-0.44-0.61-0.86-0.92-1.26l-8.85,4.44
			C831.8,609.21,832.11,609.58,832.41,609.98z"/>
		<path class="st5" d="M832.91,624.55l10.99-5.51v-1.72l-10.12,5.08C833.6,623.17,833.31,623.89,832.91,624.55z"/>
		<path class="st5" d="M830.69,608.05l8.95-4.49c-0.36-0.41-0.73-0.8-1.11-1.17l-9.23,4.63
			C829.78,607.32,830.24,607.66,830.69,608.05z"/>
		<polygon class="st5" points="823.72,620.35 836.88,613.76 833.44,613.76 823.72,618.63 		"/>
		<path class="st5" d="M814.74,620.2l-8.9,4.46c0.2,0.48,0.41,0.95,0.64,1.4l8.61-4.32C814.95,621.25,814.83,620.74,814.74,620.2z"
			/>
		<path class="st5" d="M815.73,610.9l-11.47,5.75c0,0.02,0,0.04,0,0.06c0,0.55,0.03,1.09,0.08,1.63l10.64-5.34
			C815.16,612.25,815.42,611.55,815.73,610.9z"/>
		<path class="st5" d="M815.45,622.78l-8.44,4.23c0.26,0.45,0.53,0.89,0.83,1.31l8.3-4.16
			C815.88,623.72,815.65,623.27,815.45,622.78z"/>
		<path class="st5" d="M814.69,614.36l-10.23,5.13c0.07,0.53,0.16,1.06,0.27,1.59l9.78-4.91
			C814.54,615.54,814.6,614.93,814.69,614.36z"/>
		<path class="st5" d="M814.49,617.39l-9.5,4.76c0.14,0.5,0.3,1,0.47,1.49l9.12-4.58C814.53,618.53,814.49,617.97,814.49,617.39z"/>
		<path class="st5" d="M817.12,625.57c-0.14-0.16-0.26-0.33-0.39-0.5l-8.26,4.14c0.33,0.42,0.68,0.81,1.04,1.2l8.27-4.15
			C817.56,626.05,817.33,625.82,817.12,625.57z"/>
		<path class="st5" d="M841.29,605.72c-0.01-0.01-0.02-0.02-0.02-0.03l-2.12,1.06L841.29,605.72z"/>
	</g>
</g>
</svg>
